<?xml version="1.0" encoding="UTF-8"?>
<svg width="800px" height="800px" viewBox="0 0 24 24" version="1.1" xmlns="http://www.w3.org/2000/svg" xmlns:xlink="http://www.w3.org/1999/xlink">
    <g stroke="none" stroke-width="1" fill="none" fill-rule="evenodd">
        <path d="M12,2 C14.2091,2 16,3.79086 16,6 C16,6.73953 15.8108,7.43769 15.4697,8.04651 C17.4061,8.25373 18.9,9.93941 18.9,12 C18.9,13.5397 18.0834,14.8836 16.8733,15.6169 C16.9559,15.9861 17,16.3688 17,16.7607 C17,19.0992 15.0946,21 12.75,21 C11.3497,21 10.1148,20.3192 9.38159,19.2359 C9.25559,19.2451 9.12825,19.25 9,19.25 C6.65279,19.25 4.75,17.3472 4.75,15 C4.75,13.4253 5.60447,12.0587 6.85633,11.3676 C6.34589,10.6791 6.05,9.83911 6.05,8.93 C6.05,6.75818 7.80818,5 9.98,5 C10.4128,5 10.8277,5.07094 11.2133,5.20117 C11.4612,3.4294 12.5793,2 14,2" fill="#4e54c8"></path>
        <path d="M10.5,10 C9.67157,10 9,9.32843 9,8.5 C9,7.67157 9.67157,7 10.5,7 C11.3284,7 12,7.67157 12,8.5 C12,9.32843 11.3284,10 10.5,10 Z M7.5,15 C6.67157,15 6,14.3284 6,13.5 C6,12.6716 6.67157,12 7.5,12 C8.32843,12 9,12.6716 9,13.5 C9,14.3284 8.32843,15 7.5,15 Z M12.5,18 C11.6716,18 11,17.3284 11,16.5 C11,15.6716 11.6716,15 12.5,15 C13.3284,15 14,15.6716 14,16.5 C14,17.3284 13.3284,18 12.5,18 Z M15.5,13 C14.6716,13 14,12.3284 14,11.5 C14,10.6716 14.6716,10 15.5,10 C16.3284,10 17,10.6716 17,11.5 C17,12.3284 16.3284,13 15.5,13 Z M13.5,7 C12.6716,7 12,6.32843 12,5.5 C12,4.67157 12.6716,4 13.5,4 C14.3284,4 15,4.67157 15,5.5 C15,6.32843 14.3284,7 13.5,7 Z" fill="#8f94fb"></path>
    </g>
</svg>
